# xmcd
#
# Track frame offsets:
#	150
#	13925
#	28820
#	39722
#	54737
#	65820
#	84795
#	98290
#	109702
#	122622
#
# Disc length: 1846 seconds
#
# Revision: 2
# Processed by: cddbd v1.5.2PL0 Copyright (c) Steve Scherf et al.
# Submitted via: audiograbber 1.83.01
#
DISCID=7c07340a
DTITLE=Various Artist - Real 80s Country Disc 1
DYEAR=2003
DGENRE=Country
TTITLE0=Alabama - Tenessee River
TTITLE1=Dolly Parton - But You Know I Love You
TTITLE2=Willie Nelson - Night Life
TTITLE3=Waylon Jennings and Jessi Colter - Wild Side Of Life - It Wasn't God Who 
TTITLE3=Made Honky Tonk Angels
TTITLE4=Sylvia - Drifter
TTITLE5=Earl Thomas Conley - Somewhere Between Right And Wrong
TTITLE6=Razzy Bailey - Loving Up A Storm
TTITLE7=Dean Dillon - In His Right Mind, Nobody (Would've Left Her)
TTITLE8=Leon Everette - Giving Up Easy
TTITLE9=Donna Fargo - It's Hard To Be The Dreamer (When I Used To Be The Dream)
EXTD=
EXTT0=
EXTT1=
EXTT2=
EXTT3=
EXTT4=
EXTT5=
EXTT6=
EXTT7=
EXTT8=
EXTT9=
PLAYORDER=
